<svg id="Layer_1" data-name="Layer 1" xmlns="http://www.w3.org/2000/svg" viewBox="0 0 151.72 176.78"><defs><style>.cls-1{fill:#ccc;}</style></defs><title>building-4a</title><path d="M215.66,568.45V391.67H367.38V558h-0.13ZM215.94,392V568.15l151.16-10.4V392H215.94Z" transform="translate(-215.66 -391.67)"/><path d="M329.83,446.12H310.06V423.68h19.77v22.44Zm-19.48-.28h19.2V424h-19.2v21.87Z" transform="translate(-215.66 -391.67)"/><path d="M358.4,446.12H338.63V423.68H358.4v22.44Zm-19.49-.28h19.2V424h-19.2v21.87Z" transform="translate(-215.66 -391.67)"/><path d="M329.83,472.67H310.06V450.24h19.77v22.44Zm-19.48-.28h19.2V450.52h-19.2v21.87Z" transform="translate(-215.66 -391.67)"/><path d="M358.4,472.67H338.63V450.24H358.4v22.44Zm-19.49-.28h19.2V450.52h-19.2v21.87Z" transform="translate(-215.66 -391.67)"/><path d="M301.41,499.23H281.64V476.8h19.77v22.44ZM281.92,499h19.2V477.08h-19.2V499Z" transform="translate(-215.66 -391.67)"/><path d="M273,499.23H253.21V476.8H273v22.44ZM253.49,499h19.2V477.08h-19.2V499Z" transform="translate(-215.66 -391.67)"/><path d="M329.83,499.23H310.06V476.8h19.77v22.44ZM310.35,499h19.2V477.08h-19.2V499Z" transform="translate(-215.66 -391.67)"/><path d="M244.41,499.23H224.64V476.8h19.77v22.44ZM224.92,499h19.2V477.08h-19.2V499Z" transform="translate(-215.66 -391.67)"/><path d="M301.41,472.67H281.64V450.24h19.77v22.44Zm-19.48-.28h19.2V450.52h-19.2v21.87Z" transform="translate(-215.66 -391.67)"/><path d="M273,472.67H253.21V450.24H273v22.44Zm-19.49-.28h19.2V450.52h-19.2v21.87Z" transform="translate(-215.66 -391.67)"/><path d="M244.41,472.67H224.64V450.24h19.77v22.44Zm-19.49-.28h19.2V450.52h-19.2v21.87Z" transform="translate(-215.66 -391.67)"/><path d="M358.4,499.23H338.63V476.8H358.4v22.44ZM338.92,499h19.2V477.08h-19.2V499Z" transform="translate(-215.66 -391.67)"/><path d="M301.41,525.79H281.64V503.35h19.77v22.44Zm-19.48-.28h19.2V503.64h-19.2v21.87Z" transform="translate(-215.66 -391.67)"/><path d="M273,525.79H253.21V503.35H273v22.44Zm-19.49-.28h19.2V503.64h-19.2v21.87Z" transform="translate(-215.66 -391.67)"/><path d="M329.83,525.79H310.06V503.35h19.77v22.44Zm-19.48-.28h19.2V503.64h-19.2v21.87Z" transform="translate(-215.66 -391.67)"/><path d="M244.41,525.79H224.64V503.35h19.77v22.44Zm-19.49-.28h19.2V503.64h-19.2v21.87Z" transform="translate(-215.66 -391.67)"/><path d="M358.4,525.79H338.63V503.35H358.4v22.44Zm-19.49-.28h19.2V503.64h-19.2v21.87Z" transform="translate(-215.66 -391.67)"/><path d="M273,562.11H253.21V532.53H273v29.58Zm-19.49-.28h19.2v-29h-19.2v29Z" transform="translate(-215.66 -391.67)"/><path d="M329.83,558.55H310.06v-26h19.77v26Zm-19.48-.28h19.2V532.82h-19.2v25.45Z" transform="translate(-215.66 -391.67)"/><path d="M244.41,562.11H224.64V532.53h19.77v29.58Zm-19.49-.28h19.2v-29h-19.2v29Z" transform="translate(-215.66 -391.67)"/><polygon points="119.34 167.86 119.06 167.86 119.06 144.89 146.66 144.89 146.66 165.98 146.38 165.98 146.38 145.17 119.34 145.17 119.34 167.86"/><rect class="cls-1" x="9.26" y="7.07" width="10.39" height="18.12"/><path d="M235.6,417.08h-11V398.46h11v18.62Zm-10.68-.28h10.39V398.74H224.92V416.8Z" transform="translate(-215.66 -391.67)"/><rect class="cls-1" x="37.83" y="7.07" width="10.39" height="18.12"/><path d="M264.17,417.08h-11V398.46h11v18.62Zm-10.68-.28h10.39V398.74H253.49V416.8Z" transform="translate(-215.66 -391.67)"/><path d="M321,417.08h-11V398.46h11v18.62Zm-10.68-.28h10.4V398.74h-10.4V416.8Z" transform="translate(-215.66 -391.67)"/><path d="M292.6,417.08h-11V398.46h11v18.62Zm-10.68-.28h10.39V398.74H281.92V416.8Z" transform="translate(-215.66 -391.67)"/><path d="M349.6,417.08h-11V398.46h11v18.62Zm-10.68-.28h10.4V398.74h-10.4V416.8Z" transform="translate(-215.66 -391.67)"/><rect x="0.14" y="28.31" width="151.44" height="0.28"/><rect x="119.2" y="156.02" width="27.32" height="0.28"/><rect class="cls-1" x="66.19" y="32.15" width="19.48" height="22.15"/><path d="M301.48,446.12H281.71V423.68h19.77v22.44ZM282,445.83h19.2V424H282v21.87Z" transform="translate(-215.66 -391.67)"/><rect class="cls-1" x="37.77" y="32.15" width="19.49" height="22.15"/><path d="M273.05,446.12H253.28V423.68h19.77v22.44Zm-19.49-.28h19.2V424h-19.2v21.87Z" transform="translate(-215.66 -391.67)"/><rect class="cls-1" x="9.19" y="32.15" width="19.49" height="22.15"/><path d="M244.48,446.12H224.71V423.68h19.77v22.44ZM225,445.83h19.2V424H225v21.87Z" transform="translate(-215.66 -391.67)"/></svg>