<svg id="Layer_1" data-name="Layer 1" xmlns="http://www.w3.org/2000/svg" viewBox="0 0 151.72 176.78"><defs><style>.cls-1{fill:#ccc;}</style></defs><title>building-4b</title><rect class="cls-1" x="94.69" y="7.07" width="10.39" height="18.12"/><path d="M1584.15,417.08h-11V398.46h11v18.62Zm-10.68-.28h10.4V398.74h-10.4V416.8Z" transform="translate(-1478.79 -391.67)"/><rect class="cls-1" x="66.26" y="7.07" width="10.39" height="18.12"/><path d="M1555.72,417.08h-11V398.46h11v18.62ZM1545,416.8h10.39V398.74H1545V416.8Z" transform="translate(-1478.79 -391.67)"/><rect class="cls-1" x="123.26" y="7.07" width="10.39" height="18.12"/><path d="M1612.72,417.08h-11V398.46h11v18.62ZM1602,416.8h10.4V398.74H1602V416.8Z" transform="translate(-1478.79 -391.67)"/><rect class="cls-1" x="94.54" y="32.15" width="19.49" height="22.15"/><rect class="cls-1" x="123.12" y="32.15" width="19.49" height="22.15"/><path d="M1478.79,568.45V391.67h151.72V558h-0.13ZM1479.07,392V568.15l151.16-10.4V392H1479.07Z" transform="translate(-1478.79 -391.67)"/><path d="M1593,446.12h-19.77V423.68H1593v22.44Zm-19.48-.28h19.2V424h-19.2v21.87Z" transform="translate(-1478.79 -391.67)"/><path d="M1621.53,446.12h-19.77V423.68h19.77v22.44Zm-19.49-.28h19.2V424H1602v21.87Z" transform="translate(-1478.79 -391.67)"/><path d="M1593,472.67h-19.77V450.24H1593v22.44Zm-19.48-.28h19.2V450.52h-19.2v21.87Z" transform="translate(-1478.79 -391.67)"/><path d="M1621.53,472.67h-19.77V450.24h19.77v22.44Zm-19.49-.28h19.2V450.52H1602v21.87Z" transform="translate(-1478.79 -391.67)"/><path d="M1564.53,499.23h-19.77V476.8h19.77v22.44ZM1545,499h19.2V477.08H1545V499Z" transform="translate(-1478.79 -391.67)"/><path d="M1536.11,499.23h-19.77V476.8h19.77v22.44Zm-19.49-.28h19.2V477.08h-19.2V499Z" transform="translate(-1478.79 -391.67)"/><path d="M1593,499.23h-19.77V476.8H1593v22.44Zm-19.48-.28h19.2V477.08h-19.2V499Z" transform="translate(-1478.79 -391.67)"/><path d="M1507.53,499.23h-19.77V476.8h19.77v22.44ZM1488,499h19.2V477.08H1488V499Z" transform="translate(-1478.79 -391.67)"/><path d="M1564.53,472.67h-19.77V450.24h19.77v22.44Zm-19.48-.28h19.2V450.52H1545v21.87Z" transform="translate(-1478.79 -391.67)"/><path d="M1536.11,472.67h-19.77V450.24h19.77v22.44Zm-19.49-.28h19.2V450.52h-19.2v21.87Z" transform="translate(-1478.79 -391.67)"/><path d="M1507.53,472.67h-19.77V450.24h19.77v22.44Zm-19.49-.28h19.2V450.52H1488v21.87Z" transform="translate(-1478.79 -391.67)"/><path d="M1621.53,499.23h-19.77V476.8h19.77v22.44ZM1602,499h19.2V477.08H1602V499Z" transform="translate(-1478.79 -391.67)"/><path d="M1564.53,525.79h-19.77V503.35h19.77v22.44Zm-19.48-.28h19.2V503.64H1545v21.87Z" transform="translate(-1478.79 -391.67)"/><path d="M1536.11,525.79h-19.77V503.35h19.77v22.44Zm-19.49-.28h19.2V503.64h-19.2v21.87Z" transform="translate(-1478.79 -391.67)"/><path d="M1593,525.79h-19.77V503.35H1593v22.44Zm-19.48-.28h19.2V503.64h-19.2v21.87Z" transform="translate(-1478.79 -391.67)"/><path d="M1507.53,525.79h-19.77V503.35h19.77v22.44Zm-19.49-.28h19.2V503.64H1488v21.87Z" transform="translate(-1478.79 -391.67)"/><path d="M1621.53,525.79h-19.77V503.35h19.77v22.44Zm-19.49-.28h19.2V503.64H1602v21.87Z" transform="translate(-1478.79 -391.67)"/><path d="M1536.11,562.11h-19.77V532.53h19.77v29.58Zm-19.49-.28h19.2v-29h-19.2v29Z" transform="translate(-1478.79 -391.67)"/><path d="M1593,558.55h-19.77v-26H1593v26Zm-19.48-.28h19.2V532.82h-19.2v25.45Z" transform="translate(-1478.79 -391.67)"/><path d="M1507.53,562.11h-19.77V532.53h19.77v29.58Zm-19.49-.28h19.2v-29H1488v29Z" transform="translate(-1478.79 -391.67)"/><polygon points="119.34 167.86 119.06 167.86 119.06 144.89 146.66 144.89 146.66 165.98 146.38 165.98 146.38 145.17 119.34 145.17 119.34 167.86"/><path d="M1527.3,417.08h-11V398.46h11v18.62Zm-10.68-.28H1527V398.74h-10.39V416.8Z" transform="translate(-1478.79 -391.67)"/><rect x="0.14" y="28.31" width="151.44" height="0.28"/><rect x="119.2" y="156.02" width="27.32" height="0.28"/><path d="M1564.6,446.12h-19.77V423.68h19.77v22.44Zm-19.48-.28h19.2V424h-19.2v21.87Z" transform="translate(-1478.79 -391.67)"/><path d="M1536.18,446.12h-19.77V423.68h19.77v22.44Zm-19.49-.28h19.2V424h-19.2v21.87Z" transform="translate(-1478.79 -391.67)"/><path d="M1507.61,446.12h-19.77V423.68h19.77v22.44Zm-19.49-.28h19.2V424h-19.2v21.87Z" transform="translate(-1478.79 -391.67)"/><path d="M1498.73,417.08h-11V398.46h11v18.62ZM1488,416.8h10.39V398.74H1488V416.8Z" transform="translate(-1478.79 -391.67)"/></svg>