<svg id="Layer_1" data-name="Layer 1" xmlns="http://www.w3.org/2000/svg" viewBox="0 0 151.72 176.78"><defs><style>.cls-1{fill:#ccc;}</style></defs><title>building-1a</title><path d="M322.57,3235V3058.26H474.29V3224.6h-0.13Zm0.28-176.49v176.19L474,3224.33V3058.55H322.85Z" transform="translate(-322.57 -3058.26)"/><path d="M408.31,3112.71H388.55v-22.44h19.77v22.44Zm-19.48-.28H408v-21.87h-19.2v21.87Z" transform="translate(-322.57 -3058.26)"/><path d="M379.89,3112.71H360.12v-22.44h19.77v22.44Zm-19.49-.28h19.2v-21.87H360.4v21.87Z" transform="translate(-322.57 -3058.26)"/><path d="M436.74,3112.71H417v-22.44h19.77v22.44Zm-19.48-.28h19.2v-21.87h-19.2v21.87Z" transform="translate(-322.57 -3058.26)"/><path d="M351.32,3112.71H331.55v-22.44h19.77v22.44Zm-19.49-.28H351v-21.87h-19.2v21.87Z" transform="translate(-322.57 -3058.26)"/><path d="M465.31,3112.71H445.54v-22.44h19.77v22.44Zm-19.49-.28H465v-21.87h-19.2v21.87Z" transform="translate(-322.57 -3058.26)"/><path d="M408.31,3139.27H388.55v-22.44h19.77v22.44Zm-19.48-.28H408v-21.87h-19.2V3139Z" transform="translate(-322.57 -3058.26)"/><path d="M379.89,3139.27H360.12v-22.44h19.77v22.44ZM360.4,3139h19.2v-21.87H360.4V3139Z" transform="translate(-322.57 -3058.26)"/><path d="M436.74,3139.27H417v-22.44h19.77v22.44Zm-19.48-.28h19.2v-21.87h-19.2V3139Z" transform="translate(-322.57 -3058.26)"/><path d="M351.32,3139.27H331.55v-22.44h19.77v22.44Zm-19.49-.28H351v-21.87h-19.2V3139Z" transform="translate(-322.57 -3058.26)"/><path d="M465.31,3139.27H445.54v-22.44h19.77v22.44Zm-19.49-.28H465v-21.87h-19.2V3139Z" transform="translate(-322.57 -3058.26)"/><path d="M408.31,3165.82H388.55v-22.44h19.77v22.44Zm-19.48-.28H408v-21.87h-19.2v21.87Z" transform="translate(-322.57 -3058.26)"/><path d="M379.89,3165.82H360.12v-22.44h19.77v22.44Zm-19.49-.28h19.2v-21.87H360.4v21.87Z" transform="translate(-322.57 -3058.26)"/><path d="M436.74,3165.82H417v-22.44h19.77v22.44Zm-19.48-.28h19.2v-21.87h-19.2v21.87Z" transform="translate(-322.57 -3058.26)"/><path d="M351.32,3165.82H331.55v-22.44h19.77v22.44Zm-19.49-.28H351v-21.87h-19.2v21.87Z" transform="translate(-322.57 -3058.26)"/><path d="M465.31,3165.82H445.54v-22.44h19.77v22.44Zm-19.49-.28H465v-21.87h-19.2v21.87Z" transform="translate(-322.57 -3058.26)"/><rect class="cls-1" x="66.12" y="111.82" width="19.48" height="22.15"/><path d="M408.31,3192.38H388.55v-22.44h19.77v22.44Zm-19.48-.28H408v-21.87h-19.2v21.87Z" transform="translate(-322.57 -3058.26)"/><rect class="cls-1" x="37.69" y="111.82" width="19.49" height="22.15"/><path d="M379.89,3192.38H360.12v-22.44h19.77v22.44Zm-19.49-.28h19.2v-21.87H360.4v21.87Z" transform="translate(-322.57 -3058.26)"/><path d="M436.74,3192.38H417v-22.44h19.77v22.44Zm-19.48-.28h19.2v-21.87h-19.2v21.87Z" transform="translate(-322.57 -3058.26)"/><rect class="cls-1" x="9.12" y="111.82" width="19.49" height="22.15"/><path d="M351.32,3192.38H331.55v-22.44h19.77v22.44Zm-19.49-.28H351v-21.87h-19.2v21.87Z" transform="translate(-322.57 -3058.26)"/><path d="M465.31,3192.38H445.54v-22.44h19.77v22.44Zm-19.49-.28H465v-21.87h-19.2v21.87Z" transform="translate(-322.57 -3058.26)"/><path d="M379.89,3228.7H360.12v-29.58h19.77v29.58Zm-19.49-.28h19.2v-29H360.4v29Z" transform="translate(-322.57 -3058.26)"/><path d="M436.74,3225.14H417v-26h19.77v26Zm-19.48-.28h19.2v-25.45h-19.2v25.45Z" transform="translate(-322.57 -3058.26)"/><path d="M351.32,3228.7H331.55v-29.58h19.77v29.58Zm-19.49-.28H351v-29h-19.2v29Z" transform="translate(-322.57 -3058.26)"/><polygon points="119.34 167.86 119.06 167.86 119.06 144.89 146.66 144.89 146.66 165.98 146.38 165.98 146.38 145.17 119.34 145.17 119.34 167.86"/><path d="M342.51,3083.67h-11v-18.62h11v18.62Zm-10.68-.28h10.39v-18.05H331.83v18.05Z" transform="translate(-322.57 -3058.26)"/><path d="M371.08,3083.67h-11v-18.62h11v18.62Zm-10.68-.28H370.8v-18.05H360.4v18.05Z" transform="translate(-322.57 -3058.26)"/><path d="M427.93,3083.67H417v-18.62h11v18.62Zm-10.68-.28h10.4v-18.05h-10.4v18.05Z" transform="translate(-322.57 -3058.26)"/><path d="M399.5,3083.67h-11v-18.62h11v18.62Zm-10.68-.28h10.39v-18.05H388.83v18.05Z" transform="translate(-322.57 -3058.26)"/><path d="M456.5,3083.67h-11v-18.62h11v18.62Zm-10.68-.28h10.4v-18.05h-10.4v18.05Z" transform="translate(-322.57 -3058.26)"/><rect x="0.14" y="28.31" width="151.44" height="0.28"/><rect x="119.2" y="156.02" width="27.32" height="0.28"/></svg>