<svg id="Layer_1" data-name="Layer 1" xmlns="http://www.w3.org/2000/svg" viewBox="0 0 151.72 176.78"><defs><style>.cls-1{fill:#ccc;}</style></defs><title>building-3b</title><path d="M1585.69,1511V1334.26h151.72V1500.6h-0.13Zm0.28-176.49v176.19l151.16-10.4V1334.55H1586Z" transform="translate(-1585.69 -1334.26)"/><path d="M1671.44,1388.71h-19.77v-22.44h19.77v22.44Zm-19.48-.28h19.2v-21.87H1652v21.87Z" transform="translate(-1585.69 -1334.26)"/><path d="M1643,1388.71h-19.77v-22.44H1643v22.44Zm-19.49-.28h19.2v-21.87h-19.2v21.87Z" transform="translate(-1585.69 -1334.26)"/><path d="M1699.86,1388.71H1680.1v-22.44h19.77v22.44Zm-19.48-.28h19.2v-21.87h-19.2v21.87Z" transform="translate(-1585.69 -1334.26)"/><path d="M1614.44,1388.71h-19.77v-22.44h19.77v22.44Zm-19.49-.28h19.2v-21.87H1595v21.87Z" transform="translate(-1585.69 -1334.26)"/><path d="M1728.44,1388.71h-19.77v-22.44h19.77v22.44Zm-19.49-.28h19.2v-21.87H1709v21.87Z" transform="translate(-1585.69 -1334.26)"/><path d="M1671.44,1415.27h-19.77v-22.44h19.77v22.44ZM1652,1415h19.2v-21.87H1652V1415Z" transform="translate(-1585.69 -1334.26)"/><path d="M1643,1415.27h-19.77v-22.44H1643v22.44Zm-19.49-.28h19.2v-21.87h-19.2V1415Z" transform="translate(-1585.69 -1334.26)"/><rect class="cls-1" x="94.54" y="58.71" width="19.48" height="22.15"/><path d="M1699.86,1415.27H1680.1v-22.44h19.77v22.44Zm-19.48-.28h19.2v-21.87h-19.2V1415Z" transform="translate(-1585.69 -1334.26)"/><path d="M1614.44,1415.27h-19.77v-22.44h19.77v22.44ZM1595,1415h19.2v-21.87H1595V1415Z" transform="translate(-1585.69 -1334.26)"/><rect class="cls-1" x="123.12" y="58.71" width="19.49" height="22.15"/><path d="M1728.44,1415.27h-19.77v-22.44h19.77v22.44ZM1709,1415h19.2v-21.87H1709V1415Z" transform="translate(-1585.69 -1334.26)"/><path d="M1671.44,1441.82h-19.77v-22.44h19.77v22.44Zm-19.48-.28h19.2v-21.87H1652v21.87Z" transform="translate(-1585.69 -1334.26)"/><path d="M1643,1441.82h-19.77v-22.44H1643v22.44Zm-19.49-.28h19.2v-21.87h-19.2v21.87Z" transform="translate(-1585.69 -1334.26)"/><path d="M1699.86,1441.82H1680.1v-22.44h19.77v22.44Zm-19.48-.28h19.2v-21.87h-19.2v21.87Z" transform="translate(-1585.69 -1334.26)"/><path d="M1614.44,1441.82h-19.77v-22.44h19.77v22.44Zm-19.49-.28h19.2v-21.87H1595v21.87Z" transform="translate(-1585.69 -1334.26)"/><path d="M1728.44,1441.82h-19.77v-22.44h19.77v22.44Zm-19.49-.28h19.2v-21.87H1709v21.87Z" transform="translate(-1585.69 -1334.26)"/><path d="M1671.44,1468.38h-19.77v-22.44h19.77v22.44Zm-19.48-.28h19.2v-21.87H1652v21.87Z" transform="translate(-1585.69 -1334.26)"/><path d="M1643,1468.38h-19.77v-22.44H1643v22.44Zm-19.49-.28h19.2v-21.87h-19.2v21.87Z" transform="translate(-1585.69 -1334.26)"/><path d="M1699.86,1468.38H1680.1v-22.44h19.77v22.44Zm-19.48-.28h19.2v-21.87h-19.2v21.87Z" transform="translate(-1585.69 -1334.26)"/><path d="M1614.44,1468.38h-19.77v-22.44h19.77v22.44Zm-19.49-.28h19.2v-21.87H1595v21.87Z" transform="translate(-1585.69 -1334.26)"/><path d="M1728.44,1468.38h-19.77v-22.44h19.77v22.44Zm-19.49-.28h19.2v-21.87H1709v21.87Z" transform="translate(-1585.69 -1334.26)"/><path d="M1643,1504.7h-19.77v-29.58H1643v29.58Zm-19.49-.28h19.2v-29h-19.2v29Z" transform="translate(-1585.69 -1334.26)"/><path d="M1699.86,1501.14H1680.1v-26h19.77v26Zm-19.48-.28h19.2v-25.45h-19.2v25.45Z" transform="translate(-1585.69 -1334.26)"/><path d="M1614.44,1504.7h-19.77v-29.58h19.77v29.58Zm-19.49-.28h19.2v-29H1595v29Z" transform="translate(-1585.69 -1334.26)"/><polygon points="119.34 167.86 119.06 167.86 119.06 144.89 146.66 144.89 146.66 165.98 146.38 165.98 146.38 145.17 119.34 145.17 119.34 167.86"/><path d="M1605.63,1359.67h-11v-18.62h11v18.62Zm-10.68-.28h10.39v-18.05H1595v18.05Z" transform="translate(-1585.69 -1334.26)"/><path d="M1634.2,1359.67h-11v-18.62h11v18.62Zm-10.68-.28h10.39v-18.05h-10.39v18.05Z" transform="translate(-1585.69 -1334.26)"/><path d="M1691.06,1359.67h-11v-18.62h11v18.62Zm-10.68-.28h10.4v-18.05h-10.4v18.05Z" transform="translate(-1585.69 -1334.26)"/><path d="M1662.63,1359.67h-11v-18.62h11v18.62Zm-10.68-.28h10.39v-18.05H1652v18.05Z" transform="translate(-1585.69 -1334.26)"/><path d="M1719.63,1359.67h-11v-18.62h11v18.62Zm-10.68-.28h10.4v-18.05H1709v18.05Z" transform="translate(-1585.69 -1334.26)"/><rect x="0.14" y="28.31" width="151.44" height="0.28"/><rect x="119.2" y="156.02" width="27.32" height="0.28"/></svg>