<svg xmlns="http://www.w3.org/2000/svg" viewBox="0 0 272.8 26.89"><defs><style>.cls-1{fill:#f2f2f2;}.cls-2{fill:#fff;}</style></defs><title>logo</title><g id="Layer_2" data-name="Layer 2"><g id="TXT"><path class="cls-1" d="M14.88,0h-.42L24.94,12.55V0Z"/><path class="cls-1" d="M14.88,26.89H24.94V13.73L14.44,26.88Z"/><path class="cls-1" d="M0,13.23v.43a13.51,13.51,0,0,0,12.71,13.2V0A13.51,13.51,0,0,0,0,13.23Z"/><path class="cls-2" d="M101,17.85,101,22.29a19,19,0,0,1-8.32,1.88c-6.68,0-11.39-4.38-11.39-10.54,0-7.07,6.17-10.9,11.76-10.9a18.8,18.8,0,0,1,7.11,1.4l.79,4.59h-1c-1.77-3.4-3.92-5-7.14-5a7.66,7.66,0,0,0-5.53,2.09,10.32,10.32,0,0,0-2.7,7.42,10.42,10.42,0,0,0,3.06,7.84,7.5,7.5,0,0,0,5.41,2c3.7,0,6-1.71,7.11-5.29Z"/><path class="cls-2" d="M213,16.93h-.88c-.3-2.22-1.4-3.25-4.37-3.25h-3.89V20c0,2.82.27,3.13,4.16,3.13,4.25,0,6.13-1.49,7.5-4h1L215.28,24H197.84v-.88c2.55.09,3.22-.64,3.22-2.71V6.75c0-2-.7-2.65-3.22-2.59V3.29h17L215,7.75h-.88c-.7-2.28-2.1-3.59-5.16-3.59h-5.07v8.63H208c2.49,0,4.07-.88,4.16-3.28H213Z"/><path class="cls-2" d="M227.69,17.39c.37,3.64,2.43,5.59,5.89,5.59,2.86,0,4.83-1.43,4.83-3.49A3.61,3.61,0,0,0,237.35,17c-2-2-6.56-3.55-8.84-5.83a4.45,4.45,0,0,1-1.37-3.25c0-3.13,2.67-5.19,6.68-5.19a13,13,0,0,1,6.41,1.7V8.56h-1a5.16,5.16,0,0,0-5.4-4.8c-2.61,0-4.25,1.15-4.25,3a2.7,2.7,0,0,0,.85,1.94c1.95,1.94,6.53,3.34,8.93,5.74a5.27,5.27,0,0,1,1.64,3.8c0,2.55-1.76,5.92-7.45,5.92a18,18,0,0,1-6.77-1.48l-.09-5.29Z"/><path class="cls-2" d="M272.41,3.29l.39,4.88H272c-1.31-3.06-2.58-4-4.62-4H263V20.36c0,2.09.58,2.86,3.22,2.77V24H257v-.88c2.33.06,3.13-.46,3.13-2.77V4.17h-3.95c-2.55,0-3.8,1.13-5,4h-.88l.37-4.88Z"/><path class="cls-2" d="M183.16,3.29v.88c1.7.09,2.64.91,2.64,2.28A8.46,8.46,0,0,1,185,9.24l-5.47,12.28L173.49,8.76a7,7,0,0,1-.88-2.92c0-1.12.79-1.58,2.52-1.67V3.29h-8.08v.88c1.31.24,2,.82,3,3.13L177.8,24h1.95l.42-1.06,6.55-14.61c1.28-3.19,2.22-4.1,3.37-4.16V3.29Z"/><path class="cls-2" d="M154.27,3.29l-12.9.09v.88c2.77-.09,3.25.82,3.25,2.55V20.63c0,2.12-.88,2.64-3.13,2.58v.88h9.32v-.88c-2.64.09-3.37-.55-3.37-2.61v-6l7.33-.06c3.93-.28,5.77-2.68,5.77-5.58,0-3.08-2.39-5.69-6.27-5.66m-1.5,10.36h-5.33V4.3h6.09a4.61,4.61,0,0,1,4.27,4.61,4.87,4.87,0,0,1-5,4.75"/><path class="cls-2" d="M117.06,14.33l3.81-8.55,4.07,8.55ZM130.39,20,122.65,3.29H120.7l-.42,1.07L113.73,19c-1.28,3.19-2.22,4.1-3.37,4.16V24h6.93v-.88c-1.7-.09-2.64-.91-2.64-2.27a8.51,8.51,0,0,1,.76-2.79l1.13-2.52h9l1.44,3a7,7,0,0,1,.88,2.91c0,1.13-.79,1.58-2.52,1.67V24h8.08v-.88c-1.31-.24-2-.82-3-3.12"/></g></g></svg>