<svg xmlns="http://www.w3.org/2000/svg" viewBox="0 0 223.59 22.09"><defs><style>.cls-1{fill:#344856;}</style></defs><title>Asset 2</title><g id="Layer_2" data-name="Layer 2"><g id="nav"><path class="cls-1" d="M12.22,0h-.35l8.61,10.3V0Z"/><path class="cls-1" d="M12.22,22.09h8.26V11.28l-8.62,10.8Z"/><path class="cls-1" d="M0,10.87v.35A11.1,11.1,0,0,0,10.44,22.07V0A11.1,11.1,0,0,0,0,10.87Z"/><path class="cls-1" d="M82.52,14.66l-.08,3.64a15.61,15.61,0,0,1-6.84,1.55c-5.49,0-9.36-3.59-9.36-8.66,0-5.81,5.07-9,9.66-9a15.45,15.45,0,0,1,5.84,1.15l.65,3.77h-.82c-1.45-2.79-3.22-4.06-5.87-4.06A6.29,6.29,0,0,0,71.16,4.8a8.48,8.48,0,0,0-2.22,6.09,8.56,8.56,0,0,0,2.52,6.44A6.16,6.16,0,0,0,75.91,19a5.53,5.53,0,0,0,5.84-4.34Z"/><path class="cls-1" d="M174.5,13.9h-.72c-.25-1.82-1.15-2.67-3.59-2.67H167v5.19c0,2.32.22,2.57,3.42,2.57,3.49,0,5-1.22,6.16-3.29h.8l-1,4H162V19c2.09.07,2.64-.53,2.64-2.22V5.55c0-1.63-.57-2.17-2.64-2.12V2.7H176l.15,3.67h-.72c-.57-1.87-1.72-2.95-4.24-2.95H167v7.09h3.37c2,0,3.34-.72,3.42-2.69h.72Z"/><path class="cls-1" d="M186.53,14.29c.3,3,2,4.59,4.84,4.59,2.35,0,4-1.18,4-2.87a3,3,0,0,0-.87-2c-1.62-1.62-5.39-2.92-7.26-4.79a3.66,3.66,0,0,1-1.12-2.67c0-2.57,2.2-4.26,5.49-4.26a10.72,10.72,0,0,1,5.27,1.4V7H196a4.24,4.24,0,0,0-4.44-3.94c-2.15,0-3.49.95-3.49,2.47a2.23,2.23,0,0,0,.7,1.6c1.6,1.6,5.37,2.75,7.34,4.72A4.33,4.33,0,0,1,197.44,15c0,2.1-1.45,4.86-6.12,4.86a14.78,14.78,0,0,1-5.56-1.22l-.08-4.34Z"/><path class="cls-1" d="M223.27,2.7l.32,4h-.7c-1.07-2.52-2.12-3.29-3.79-3.29h-3.59v13.3c0,1.72.47,2.35,2.64,2.27v.72h-7.53V19c1.92,0,2.57-.38,2.57-2.27V3.42h-3.24c-2.1,0-3.12.92-4.12,3.29h-.72l.3-4Z"/><path class="cls-1" d="M150,2.7v.72c1.4.08,2.17.75,2.17,1.87a7,7,0,0,1-.62,2.29L147,17.67,142,7.19a5.75,5.75,0,0,1-.73-2.4c0-.92.65-1.3,2.07-1.37V2.7h-6.64v.72c1.07.2,1.67.68,2.47,2.57l6.36,13.72h1.6l.34-.87,5.38-12c1-2.62,1.82-3.37,2.77-3.42V2.7Z"/><path class="cls-1" d="M126.23,2.7l-10.6.07v.72c2.27-.08,2.67.67,2.67,2.1V16.94c0,1.75-.73,2.17-2.57,2.12v.72h7.66v-.72c-2.17.07-2.77-.45-2.77-2.15V12l6-.05c3.22-.23,4.74-2.2,4.74-4.58,0-2.54-2-4.68-5.15-4.65M125,11.21h-4.37V3.53h5a3.79,3.79,0,0,1,3.5,3.78,4,4,0,0,1-4.13,3.9"/><path class="cls-1" d="M95.67,11.77l3.13-7,3.35,7Zm10.94,4.66L100.26,2.7h-1.6l-.35.88-5.38,12c-1,2.62-1.82,3.37-2.77,3.42v.73h5.69V19c-1.4-.07-2.17-.75-2.17-1.87a7,7,0,0,1,.62-2.3l.92-2.07h7.39l1.18,2.47a5.74,5.74,0,0,1,.72,2.39c0,.93-.65,1.3-2.07,1.37v.73h6.64V19c-1.07-.2-1.67-.67-2.47-2.57"/></g></g></svg>