<svg id="Layer_1" data-name="Layer 1" xmlns="http://www.w3.org/2000/svg" viewBox="0 0 296 182"><defs><style>.cls-1{fill:#fff;}</style></defs><title>logo</title><path class="cls-1" d="M868,247H572V65H868V247Zm-290-6H862V71H578V241Z" transform="translate(-572 -65)"/><polygon class="cls-1" points="48.86 122.24 60.88 122.24 60.88 48.58 69.88 48.58 69.88 36.55 39.86 36.55 39.86 48.58 48.86 48.58 48.86 122.24"/><path class="cls-1" d="M661.92,175.21h11.93v12h12V118.74a18.7,18.7,0,0,0-5.26-13.36,17.45,17.45,0,0,0-25.48,0,18.67,18.67,0,0,0-5.26,13.36v68.49h12v-12Zm0-31.89V118.74a7.16,7.16,0,0,1,1.73-4.86,5.47,5.47,0,0,1,8.46,0,7.17,7.17,0,0,1,1.74,4.86v44.54H661.92v-20Z" transform="translate(-572 -65)"/><path class="cls-1" d="M711.8,188.93a17,17,0,0,0,12.74-5.52A18.7,18.7,0,0,0,729.79,170V151.25a18.7,18.7,0,0,0-5.25-13.36,16.94,16.94,0,0,0-12.74-5.52,5.41,5.41,0,0,1-4.23-2,7.15,7.15,0,0,1-1.73-4.85v-6.77a7.15,7.15,0,0,1,1.73-4.86,5.47,5.47,0,0,1,8.46,0,7.16,7.16,0,0,1,1.74,4.86v6.77h12v-6.77a18.7,18.7,0,0,0-5.25-13.36,17.45,17.45,0,0,0-25.47,0,18.69,18.69,0,0,0-5.26,13.36v6.77a18.69,18.69,0,0,0,5.26,13.36,16.93,16.93,0,0,0,12.74,5.52,5.4,5.4,0,0,1,4.23,2,7.16,7.16,0,0,1,1.74,4.86V170A7.17,7.17,0,0,1,716,174.9a5.47,5.47,0,0,1-8.46,0,7.16,7.16,0,0,1-1.73-4.86v-6.77h-12V170a18.68,18.68,0,0,0,5.26,13.36A16.94,16.94,0,0,0,711.8,188.93Z" transform="translate(-572 -65)"/><path class="cls-1" d="M758.47,188.93a17,17,0,0,0,12.74-5.52A18.69,18.69,0,0,0,776.46,170V151.25a18.69,18.69,0,0,0-5.25-13.36,17,17,0,0,0-12.74-5.52,5.41,5.41,0,0,1-4.23-2,7.16,7.16,0,0,1-1.73-4.85v-6.77a7.16,7.16,0,0,1,1.73-4.86,5.47,5.47,0,0,1,8.47,0,7.18,7.18,0,0,1,1.73,4.86v6.77h12v-6.77a18.69,18.69,0,0,0-5.25-13.36,17.45,17.45,0,0,0-25.48,0,18.68,18.68,0,0,0-5.25,13.36v6.77a18.68,18.68,0,0,0,5.25,13.36,16.94,16.94,0,0,0,12.74,5.52,5.41,5.41,0,0,1,4.23,2,7.19,7.19,0,0,1,1.73,4.86V170a7.19,7.19,0,0,1-1.73,4.86,5.47,5.47,0,0,1-8.47,0A7.18,7.18,0,0,1,752.5,170v-6.77h-12V170a18.68,18.68,0,0,0,5.25,13.36A16.94,16.94,0,0,0,758.47,188.93Z" transform="translate(-572 -65)"/><path class="cls-1" d="M805.15,188.93a16.94,16.94,0,0,0,12.74-5.52A18.67,18.67,0,0,0,823.14,170V118.74a18.67,18.67,0,0,0-5.26-13.36,17.44,17.44,0,0,0-25.47,0,18.68,18.68,0,0,0-5.26,13.36V170a18.68,18.68,0,0,0,5.26,13.36A16.93,16.93,0,0,0,805.15,188.93Zm-6-70.19a7.14,7.14,0,0,1,1.74-4.86,5.47,5.47,0,0,1,8.46,0,7.17,7.17,0,0,1,1.73,4.86V170a7.19,7.19,0,0,1-1.73,4.86,5.47,5.47,0,0,1-8.46,0,7.15,7.15,0,0,1-1.74-4.86V118.74Z" transform="translate(-572 -65)"/><path class="cls-1" d="M624.81,208a0.83,0.83,0,0,0-.79-0.53,0.85,0.85,0,0,0-.8.53l-3.32,8.85a0.83,0.83,0,0,0,1.56.6l0.74-2h3.65l0.73,2a0.81,0.81,0,0,0,.77.53,0.78,0.78,0,0,0,.28,0,0.85,0.85,0,0,0,.5-1.08Zm-2,5.84,1.22-3.23,1.22,3.23H622.8Z" transform="translate(-572 -65)"/><path class="cls-1" d="M635.2,207.5h-2.69a0.83,0.83,0,0,0-.83.83v8.86a0.83,0.83,0,0,0,1.67,0v-3.26h1.85A3.21,3.21,0,1,0,635.2,207.5Zm0,4.76h-1.85v-3.09h1.85A1.55,1.55,0,1,1,635.2,212.26Z" transform="translate(-572 -65)"/><path class="cls-1" d="M640.8,218a0.86,0.86,0,0,0,1.07-.48l0.74-2h3.65l0.73,2A0.85,0.85,0,0,0,648,218a0.85,0.85,0,0,0,.5-1.08L645.21,208a0.83,0.83,0,0,0-.79-0.53,0.85,0.85,0,0,0-.8.53l-3.32,8.85A0.85,0.85,0,0,0,640.8,218Zm3.62-7.32,1.21,3.23H643.2Z" transform="translate(-572 -65)"/><path class="cls-1" d="M658.52,216.25a3.75,3.75,0,0,1-.06-0.89,2.86,2.86,0,0,0-.5-1.62,2.39,2.39,0,0,0-.53-0.56,3.18,3.18,0,0,0,1.17-2.46,3.21,3.21,0,0,0-3.21-3.23H652.7a0.81,0.81,0,0,0-.82.83v8.86a0.82,0.82,0,0,0,.82.83,0.84,0.84,0,0,0,.84-0.83v-3.26h1.77a3,3,0,0,1,.84.36,1.4,1.4,0,0,1,.45.43,1.25,1.25,0,0,1,.18.65,4,4,0,0,0,.32,1.8,1.48,1.48,0,0,0,.48.52,1.09,1.09,0,0,0,.59.17h0a1.23,1.23,0,0,0,.33,0,0.82,0.82,0,0,0,.52-1A0.79,0.79,0,0,0,658.52,216.25Zm-3.12-4h-1.85v-3.09h1.85A1.55,1.55,0,0,1,655.39,212.26Z" transform="translate(-572 -65)"/><path class="cls-1" d="M669.1,207.5h-6.41a0.81,0.81,0,0,0-.83.83,0.84,0.84,0,0,0,.83.84h2.37v8a0.82,0.82,0,0,0,.82.83,0.82,0.82,0,0,0,.83-0.83v-8h2.38a0.85,0.85,0,0,0,.83-0.84A0.82,0.82,0,0,0,669.1,207.5Z" transform="translate(-572 -65)"/><path class="cls-1" d="M682.1,207.5h0a0.82,0.82,0,0,0-.67.34l-3,4.15-3-4.15a0.82,0.82,0,0,0-.66-0.34h0a0.83,0.83,0,0,0-.83.83v8.86a0.83,0.83,0,0,0,1.67,0v-6.33l2.15,3a0.85,0.85,0,0,0,.69.34h0a0.82,0.82,0,0,0,.68-0.34l2.16-3v6.33a0.82,0.82,0,0,0,.82.83,0.85,0.85,0,0,0,.84-0.83v-8.86A0.86,0.86,0,0,0,682.1,207.5Z" transform="translate(-572 -65)"/><path class="cls-1" d="M688.15,218h0s0,0,0,0h4.87a0.83,0.83,0,0,0,0-1.67H689v-2.76h3.5a0.83,0.83,0,0,0,0-1.67H689v-2.75h4.07a0.84,0.84,0,0,0,.82-0.84,0.83,0.83,0,0,0-.82-0.83h-4.92a0.82,0.82,0,0,0-.83.83v8.86A0.82,0.82,0,0,0,688.15,218Z" transform="translate(-572 -65)"/><path class="cls-1" d="M704.88,207.65a0.82,0.82,0,0,0-.81.81v6.19l-4.85-6.72a0.83,0.83,0,0,0-1.14-.18,0.82,0.82,0,0,0-.33.69v8.74a0.82,0.82,0,1,0,1.64,0V211l4.81,6.67a0.32,0.32,0,0,0,.08.09,0.81,0.81,0,0,0,.62.3,0.83,0.83,0,0,0,.82-0.83v-8.73A0.83,0.83,0,0,0,704.88,207.65Z" transform="translate(-572 -65)"/><path class="cls-1" d="M717.09,207.5h-6.42a0.81,0.81,0,0,0-.83.83,0.84,0.84,0,0,0,.83.84H713v8a0.82,0.82,0,0,0,.83.83,0.81,0.81,0,0,0,.83-0.83v-8h2.39a0.85,0.85,0,0,0,.82-0.84A0.82,0.82,0,0,0,717.09,207.5Z" transform="translate(-572 -65)"/><path class="cls-1" d="M727.5,212.29a8.67,8.67,0,0,0-2.08-.63h0a5.27,5.27,0,0,1-1.88-.66,1.4,1.4,0,0,1-.4-0.39,0.72,0.72,0,0,1-.11-0.42,1.19,1.19,0,0,1,.57-0.95,2.87,2.87,0,0,1,1.68-.51,4.37,4.37,0,0,1,2.42,1,0.76,0.76,0,0,0,1.07-.23,0.78,0.78,0,0,0-.21-1.07,5.88,5.88,0,0,0-3.28-1.2,4.43,4.43,0,0,0-2.6.8,2.78,2.78,0,0,0-1.2,2.19,2.33,2.33,0,0,0,.35,1.23,3.22,3.22,0,0,0,1.4,1.17,8.07,8.07,0,0,0,1.94.59h0a6,6,0,0,1,2.06.71,1.42,1.42,0,0,1,.45.45,0.86,0.86,0,0,1,.13.48,1.36,1.36,0,0,1-.64,1.08,3.25,3.25,0,0,1-1.88.56,4.91,4.91,0,0,1-2.87-1.16,0.78,0.78,0,0,0-1.09.11,0.8,0.8,0,0,0,.12,1.1,6.47,6.47,0,0,0,3.84,1.5,4.68,4.68,0,0,0,2.78-.86,2.9,2.9,0,0,0,1.3-2.33,2.43,2.43,0,0,0-.36-1.28A3.48,3.48,0,0,0,727.5,212.29Z" transform="translate(-572 -65)"/><path class="cls-1" d="M768.94,216.34h-4.07v-8a0.84,0.84,0,0,0-.84-0.83,0.82,0.82,0,0,0-.83.83v8.86a0.82,0.82,0,0,0,.83.83h4.91A0.83,0.83,0,0,0,768.94,216.34Z" transform="translate(-572 -65)"/><path class="cls-1" d="M774.16,207.5a0.81,0.81,0,0,0-.82.83v8.86a0.81,0.81,0,0,0,.82.83,0.83,0.83,0,0,0,.84-0.83v-8.86A0.83,0.83,0,0,0,774.16,207.5Z" transform="translate(-572 -65)"/><path class="cls-1" d="M782.95,218a4.7,4.7,0,0,0,2.78-.86,2.9,2.9,0,0,0,1.29-2.33,2.38,2.38,0,0,0-.36-1.28,3.45,3.45,0,0,0-1.5-1.25,8.69,8.69,0,0,0-2.08-.63h0a5.24,5.24,0,0,1-1.88-.66,1.41,1.41,0,0,1-.4-0.39,0.71,0.71,0,0,1-.11-0.42,1.2,1.2,0,0,1,.57-0.95,2.86,2.86,0,0,1,1.68-.51,4.37,4.37,0,0,1,2.42,1,0.76,0.76,0,0,0,1.07-.23,0.78,0.78,0,0,0-.21-1.07,5.89,5.89,0,0,0-3.28-1.2,4.44,4.44,0,0,0-2.6.8,2.78,2.78,0,0,0-1.2,2.19,2.31,2.31,0,0,0,.34,1.23,3.21,3.21,0,0,0,1.4,1.17,8.06,8.06,0,0,0,1.94.59h0a6,6,0,0,1,2.06.71,1.43,1.43,0,0,1,.45.45,0.86,0.86,0,0,1,.13.48,1.35,1.35,0,0,1-.65,1.08,3.23,3.23,0,0,1-1.87.56,4.9,4.9,0,0,1-2.87-1.16,0.78,0.78,0,0,0-1.1.11,0.8,0.8,0,0,0,.12,1.1A6.49,6.49,0,0,0,782.95,218Z" transform="translate(-572 -65)"/><path class="cls-1" d="M796.07,212.06a2.81,2.81,0,0,0,.58-1.71,2.86,2.86,0,0,0-2.86-2.85h-2.12a0.83,0.83,0,0,0-.84.83v8.86a0.83,0.83,0,0,0,.83.83h0s0,0,0,0h2.66A3.22,3.22,0,0,0,796.07,212.06Zm-3.57-2.9h1.29a1.18,1.18,0,0,1,1.18,1.19,1.2,1.2,0,0,1-1.18,1.22h-1.29v-2.4Zm1.88,7.18h-1.88v-3.11h1.88A1.55,1.55,0,0,1,794.37,216.34Z" transform="translate(-572 -65)"/><path class="cls-1" d="M805.95,207.19a5,5,0,0,0-3.68,1.61,5.61,5.61,0,0,0,0,7.6,5.09,5.09,0,0,0,3.68,1.61,4.93,4.93,0,0,0,3.59-1.61,5.52,5.52,0,0,0,0-7.6A4.86,4.86,0,0,0,805.95,207.19Zm2.37,8a3.25,3.25,0,0,1-2.37,1.08,3.29,3.29,0,0,1-2.43-1.08,3.75,3.75,0,0,1-1-2.62,3.82,3.82,0,0,1,1-2.63,3.27,3.27,0,0,1,2.43-1.07,3.23,3.23,0,0,1,2.37,1.07,3.88,3.88,0,0,1,1,2.63A3.81,3.81,0,0,1,808.32,215.22Z" transform="translate(-572 -65)"/><path class="cls-1" d="M822.27,207.65a0.82,0.82,0,0,0-.82.81v6.19l-4.85-6.72a0.83,0.83,0,0,0-1.14-.18,0.81,0.81,0,0,0-.33.69v8.74a0.82,0.82,0,1,0,1.64,0V211l4.81,6.67a0.36,0.36,0,0,0,.08.09,0.81,0.81,0,0,0,.62.3,0.83,0.83,0,0,0,.82-0.83v-8.73A0.83,0.83,0,0,0,822.27,207.65Z" transform="translate(-572 -65)"/><circle class="cls-1" cx="174.66" cy="147.37" r="3"/></svg>